<svg width="16" height="16" viewBox="0 0 16 16" fill="none" xmlns="http://www.w3.org/2000/svg">
<rect width="16" height="16" fill="#292F36"/>
<path d="M2.472 7.6C2.77067 7.28533 3.05067 7.128 3.312 7.128C3.54133 7.128 3.77067 7.25867 4 7.52L2.64 8.84L4.016 10.176C3.92 10.2933 3.81333 10.3867 3.696 10.456C3.584 10.5253 3.45867 10.56 3.32 10.56C3.19733 10.56 3.06667 10.5253 2.928 10.456C2.78933 10.3813 2.64267 10.2613 2.488 10.096L1.28 8.832L2.472 7.6ZM5.76794 9.736C5.76794 9.8 5.7706 9.86133 5.77594 9.92C5.7866 9.97867 5.8026 10.032 5.82394 10.08C5.8506 10.1227 5.88527 10.16 5.92794 10.192C5.97594 10.2187 6.03994 10.232 6.11994 10.232C6.1626 10.232 6.20527 10.2267 6.24794 10.216C6.29594 10.2 6.3386 10.176 6.37594 10.144C6.39727 10.1867 6.4106 10.2293 6.41594 10.272C6.42127 10.3093 6.42394 10.3493 6.42394 10.392C6.42394 10.5627 6.3466 10.704 6.19194 10.816C6.03727 10.928 5.83994 10.984 5.59994 10.984C5.31194 10.984 5.08794 10.8987 4.92794 10.728C4.77327 10.552 4.69594 10.296 4.69594 9.96V6.944C4.7226 6.93867 4.7466 6.936 4.76794 6.936H4.83994C5.12794 6.936 5.3546 7.01333 5.51994 7.168C5.68527 7.32267 5.76794 7.56 5.76794 7.88V9.736ZM6.51994 7.856C6.51994 7.69067 6.54927 7.54933 6.60794 7.432C6.6666 7.31467 6.74394 7.21867 6.83994 7.144C6.93594 7.06933 7.04527 7.016 7.16794 6.984C7.2906 6.952 7.41594 6.936 7.54394 6.936H7.59194V9.168C7.59194 9.6 7.50127 9.90667 7.31994 10.088C7.1386 10.2693 6.87194 10.36 6.51994 10.36V7.856ZM9.88913 4.904H9.98513C10.1025 4.904 10.2225 4.91733 10.3451 4.944C10.4731 4.97067 10.5878 5.02133 10.6891 5.096C10.7958 5.16533 10.8811 5.264 10.9451 5.392C11.0091 5.51467 11.0411 5.672 11.0411 5.864V7.112C11.0411 7.304 11.0091 7.464 10.9451 7.592C10.8811 7.71467 10.7958 7.81333 10.6891 7.888C10.5878 7.95733 10.4731 8.00533 10.3451 8.032C10.2225 8.05867 10.1025 8.072 9.98513 8.072H9.88913V4.904ZM9.58513 11H9.48913C9.36646 11 9.24379 10.9867 9.12113 10.96C8.99846 10.9333 8.88379 10.8853 8.77713 10.816C8.67579 10.7413 8.59313 10.6427 8.52913 10.52C8.46513 10.392 8.43313 10.232 8.43313 10.04V8.792C8.43313 8.6 8.46513 8.44267 8.52913 8.32C8.59313 8.192 8.67579 8.09333 8.77713 8.024C8.88379 7.94933 8.99846 7.89867 9.12113 7.872C9.24379 7.84533 9.36646 7.832 9.48913 7.832H9.58513V11ZM14.5794 8.832L13.3714 10.096C13.2168 10.2613 13.0674 10.3813 12.9234 10.456C12.7794 10.5253 12.6461 10.56 12.5234 10.56C12.3901 10.56 12.2674 10.5253 12.1554 10.456C12.0434 10.3867 11.9394 10.2933 11.8434 10.176L13.2194 8.84L11.8594 7.52C12.0888 7.25867 12.3181 7.128 12.5474 7.128C12.8034 7.128 13.0834 7.28533 13.3874 7.6L14.5794 8.832Z" fill="#12F7D6"/>
</svg>
