<svg width="32" height="32" viewBox="0 0 32 32" fill="none" xmlns="http://www.w3.org/2000/svg">
<rect width="32" height="32" fill="#292F36"/>
<path d="M5.76 14.625C6.32 14.035 6.845 13.74 7.335 13.74C7.765 13.74 8.195 13.985 8.625 14.475L6.075 16.95L8.655 19.455C8.475 19.675 8.275 19.85 8.055 19.98C7.845 20.11 7.61 20.175 7.35 20.175C7.12 20.175 6.875 20.11 6.615 19.98C6.355 19.84 6.08 19.615 5.79 19.305L3.525 16.935L5.76 14.625ZM11.9399 18.63C11.9399 18.75 11.9449 18.865 11.9549 18.975C11.9749 19.085 12.0049 19.185 12.0449 19.275C12.0949 19.355 12.1599 19.425 12.2399 19.485C12.3299 19.535 12.4499 19.56 12.5999 19.56C12.6799 19.56 12.7599 19.55 12.8399 19.53C12.9299 19.5 13.0099 19.455 13.0799 19.395C13.1199 19.475 13.1449 19.555 13.1549 19.635C13.1649 19.705 13.1699 19.78 13.1699 19.86C13.1699 20.18 13.0249 20.445 12.7349 20.655C12.4449 20.865 12.0749 20.97 11.6249 20.97C11.0849 20.97 10.6649 20.81 10.3649 20.49C10.0749 20.16 9.92988 19.68 9.92988 19.05V13.395C9.97988 13.385 10.0249 13.38 10.0649 13.38H10.1999C10.7399 13.38 11.1649 13.525 11.4749 13.815C11.7849 14.105 11.9399 14.55 11.9399 15.15V18.63ZM13.3499 15.105C13.3499 14.795 13.4049 14.53 13.5149 14.31C13.6249 14.09 13.7699 13.91 13.9499 13.77C14.1299 13.63 14.3349 13.53 14.5649 13.47C14.7949 13.41 15.0299 13.38 15.2699 13.38H15.3599V17.565C15.3599 18.375 15.1899 18.95 14.8499 19.29C14.5099 19.63 14.0099 19.8 13.3499 19.8V15.105ZM19.6671 9.57H19.8471C20.0671 9.57 20.2921 9.595 20.5221 9.645C20.7621 9.695 20.9771 9.79 21.1671 9.93C21.3671 10.06 21.5271 10.245 21.6471 10.485C21.7671 10.715 21.8271 11.01 21.8271 11.37V13.71C21.8271 14.07 21.7671 14.37 21.6471 14.61C21.5271 14.84 21.3671 15.025 21.1671 15.165C20.9771 15.295 20.7621 15.385 20.5221 15.435C20.2921 15.485 20.0671 15.51 19.8471 15.51H19.6671V9.57ZM19.0971 21H18.9171C18.6871 21 18.4571 20.975 18.2271 20.925C17.9971 20.875 17.7821 20.785 17.5821 20.655C17.3921 20.515 17.2371 20.33 17.1171 20.1C16.9971 19.86 16.9371 19.56 16.9371 19.2V16.86C16.9371 16.5 16.9971 16.205 17.1171 15.975C17.2371 15.735 17.3921 15.55 17.5821 15.42C17.7821 15.28 17.9971 15.185 18.2271 15.135C18.4571 15.085 18.6871 15.06 18.9171 15.06H19.0971V21ZM28.4614 16.935L26.1964 19.305C25.9064 19.615 25.6264 19.84 25.3564 19.98C25.0864 20.11 24.8364 20.175 24.6064 20.175C24.3564 20.175 24.1264 20.11 23.9164 19.98C23.7064 19.85 23.5114 19.675 23.3314 19.455L25.9114 16.95L23.3614 14.475C23.7914 13.985 24.2214 13.74 24.6514 13.74C25.1314 13.74 25.6564 14.035 26.2264 14.625L28.4614 16.935Z" fill="#12F7D6"/>
</svg>
